<mxfile modified="2023-11-08T07:35:41.888Z" host="app.diagrams.net" agent="Mozilla/5.0 (Macintosh; Intel Mac OS X 10_15_7) AppleWebKit/537.36 (KHTML, like Gecko) Chrome/119.0.0.0 Safari/537.36" etag="aKigL4hkM8KjZHeAIIJd" version="22.0.8" type="google">
  <diagram id="Ht1M8jgEwFfnCIfOTk4-" name="Page-1">
    <mxGraphModel grid="1" page="1" gridSize="10" guides="1" tooltips="1" connect="1" arrows="1" fold="1" pageScale="1" pageWidth="827" pageHeight="1169" math="0" shadow="0">
      <root>
        <mxCell id="0" />
        <mxCell id="1" parent="0" />
        <mxCell id="jZVaUwOg5UY3L9NAnvdq-71" value="AWS Cloud" style="points=[[0,0],[0.25,0],[0.5,0],[0.75,0],[1,0],[1,0.25],[1,0.5],[1,0.75],[1,1],[0.75,1],[0.5,1],[0.25,1],[0,1],[0,0.75],[0,0.5],[0,0.25]];outlineConnect=0;gradientColor=none;html=1;whiteSpace=wrap;fontSize=12;fontStyle=0;shape=mxgraph.aws4.group;grIcon=mxgraph.aws4.group_aws_cloud_alt;strokeColor=#232F3E;fillColor=none;verticalAlign=top;align=left;spacingLeft=30;fontColor=#232F3E;dashed=0;labelBackgroundColor=none;container=1;pointerEvents=0;collapsible=0;recursiveResize=0;" vertex="1" parent="1">
          <mxGeometry y="138" width="860" height="670" as="geometry" />
        </mxCell>
        <mxCell id="wVfG-KKMgDqxT5qiAzvM-47" value="" style="rounded=0;whiteSpace=wrap;html=1;" vertex="1" parent="jZVaUwOg5UY3L9NAnvdq-71">
          <mxGeometry x="220" y="361" width="320" height="279" as="geometry" />
        </mxCell>
        <mxCell id="wVfG-KKMgDqxT5qiAzvM-46" value="" style="rounded=0;whiteSpace=wrap;html=1;" vertex="1" parent="jZVaUwOg5UY3L9NAnvdq-71">
          <mxGeometry x="610" y="370.5" width="220" height="190" as="geometry" />
        </mxCell>
        <mxCell id="wVfG-KKMgDqxT5qiAzvM-32" style="edgeStyle=orthogonalEdgeStyle;rounded=0;orthogonalLoop=1;jettySize=auto;html=1;" edge="1" parent="jZVaUwOg5UY3L9NAnvdq-71" source="jZVaUwOg5UY3L9NAnvdq-73" target="wVfG-KKMgDqxT5qiAzvM-4">
          <mxGeometry relative="1" as="geometry">
            <Array as="points">
              <mxPoint x="399" y="290" />
              <mxPoint x="505" y="290" />
            </Array>
          </mxGeometry>
        </mxCell>
        <mxCell id="jZVaUwOg5UY3L9NAnvdq-73" value="Amazon S3" style="outlineConnect=0;fontColor=#232F3E;gradientColor=#60A337;gradientDirection=north;fillColor=#277116;strokeColor=#ffffff;dashed=0;verticalLabelPosition=bottom;verticalAlign=top;align=center;html=1;fontSize=12;fontStyle=0;aspect=fixed;shape=mxgraph.aws4.resourceIcon;resIcon=mxgraph.aws4.s3;labelBackgroundColor=none;" vertex="1" parent="jZVaUwOg5UY3L9NAnvdq-71">
          <mxGeometry x="360" y="170" width="78" height="78" as="geometry" />
        </mxCell>
        <mxCell id="wVfG-KKMgDqxT5qiAzvM-39" style="edgeStyle=orthogonalEdgeStyle;rounded=0;orthogonalLoop=1;jettySize=auto;html=1;" edge="1" parent="jZVaUwOg5UY3L9NAnvdq-71" source="wVfG-KKMgDqxT5qiAzvM-4" target="jZVaUwOg5UY3L9NAnvdq-73">
          <mxGeometry relative="1" as="geometry">
            <Array as="points">
              <mxPoint x="505" y="290" />
              <mxPoint x="399" y="290" />
            </Array>
          </mxGeometry>
        </mxCell>
        <mxCell id="wVfG-KKMgDqxT5qiAzvM-4" value="ECS" style="sketch=0;points=[[0,0,0],[0.25,0,0],[0.5,0,0],[0.75,0,0],[1,0,0],[0,1,0],[0.25,1,0],[0.5,1,0],[0.75,1,0],[1,1,0],[0,0.25,0],[0,0.5,0],[0,0.75,0],[1,0.25,0],[1,0.5,0],[1,0.75,0]];outlineConnect=0;fontColor=#232F3E;fillColor=#ED7100;strokeColor=#ffffff;dashed=0;verticalLabelPosition=bottom;verticalAlign=top;align=center;html=1;fontSize=12;fontStyle=0;aspect=fixed;shape=mxgraph.aws4.resourceIcon;resIcon=mxgraph.aws4.ecs;" vertex="1" parent="jZVaUwOg5UY3L9NAnvdq-71">
          <mxGeometry x="266.44" y="300" width="130" height="130" as="geometry" />
        </mxCell>
        <mxCell id="wVfG-KKMgDqxT5qiAzvM-11" value="Code Pipeline" style="outlineConnect=0;dashed=0;verticalLabelPosition=bottom;verticalAlign=top;align=center;html=1;shape=mxgraph.aws3.codepipeline;fillColor=#759C3E;gradientColor=none;" vertex="1" parent="jZVaUwOg5UY3L9NAnvdq-71">
          <mxGeometry x="80" y="244" width="67.5" height="81" as="geometry" />
        </mxCell>
        <mxCell id="wVfG-KKMgDqxT5qiAzvM-5" value="ECR" style="sketch=0;points=[[0,0,0],[0.25,0,0],[0.5,0,0],[0.75,0,0],[1,0,0],[0,1,0],[0.25,1,0],[0.5,1,0],[0.75,1,0],[1,1,0],[0,0.25,0],[0,0.5,0],[0,0.75,0],[1,0.25,0],[1,0.5,0],[1,0.75,0]];outlineConnect=0;fontColor=#232F3E;fillColor=#ED7100;strokeColor=#ffffff;dashed=0;verticalLabelPosition=bottom;verticalAlign=top;align=center;html=1;fontSize=12;fontStyle=0;aspect=fixed;shape=mxgraph.aws4.resourceIcon;resIcon=mxgraph.aws4.ecr;" vertex="1" parent="jZVaUwOg5UY3L9NAnvdq-71">
          <mxGeometry x="230" y="170" width="78" height="78" as="geometry" />
        </mxCell>
        <mxCell id="wVfG-KKMgDqxT5qiAzvM-21" value="React" style="shape=image;verticalLabelPosition=bottom;labelBackgroundColor=default;verticalAlign=top;aspect=fixed;imageAspect=0;image=data:image/png,iVBORw0KGgoAAAANSUhEUgAAAMgAAACuCAMAAABEK7LrAAAATlBMVEX///9h2vv7/v9n2/ug6f3V9f554PyB4fyr6/3p+v667/1t3fuW5vza9v7K8/6Q5fz2/f/n+f7A8P3I8v7g+P6w7P3o+v6T5vyI4/x84ftKhrY8AAAL0ElEQVR4nN1dabuiOgxWdkEBQe/h/P8/et1I0nQhLcXj+H64z8xc7JJma5q0u10Qzteu2T+QltlwCGtkxn9DVqbP1pruel7XmBfGcq+iqC6hbV2qgjVWjjHH6kDOe37Ope79m+prc1t5/FFrSDJT1w8mqzyn0lepra0s2Wb0pPPJ1rfvVPraOo0byoD19UFvZAVEUwtJmdSNu6Vi05kkrvV4DUDE32Y5UzBtyV1W+aA4LtKyF7WTbTePnPZTVkPejtejTtumdTcz6lxVHK9jm4+Votc3010JGfMR7dah1hiucyxK3/Gvpxot6vlIZrcVc9VIc0asQ8WI3JxsjeT8y4r5BTkqs3qLWdxICUNodDvecy1kGcSVTcOg5S4wk2abJcEFMTIvN28m9mJsZbE7KIpD3Bm8ABJiUydMGRXaup1UxZDZJAnaKeONHnEGOtolWTUPKdNerbJkhVWMdj18uIUrDNxdOT5KKoXmiqDUyv+qXPwPrVzjjF0BqHj37uOiLAo6f6qzqbOdgv/m76Y4Y6fopW2rI55efKiK+aLxn6nmYONQgCpZVu4DlYWnG3v4Jf+ULisj4OP41h043C6jAIW9ihsrHpR/EOwmT3Ky+WJ2HVKJkVIYqTgo83C5L4BkXtT4nuPMtULVTgWloUZfOLLCrzsPzIM5Cr9XlS1AyiozAzSh47UhmUfisiIKWsNOlptIO8CSxHa3DnPDcvfnpG07DM6mDbCgsfUvTMQj6HTmHruHwzHMP1oZ/NNwmRsWM8eOad2HHhZjnH8V29sCxe5loc5ETlKvYGQ7/yw4hGkBGHaBPQSoQRevUFVQf14Ne1CIB486Dw0UxgEChFDouGfwMNObrUgAha58Hj7bi81kBPaHYq3V6vPwUN6gtf4LG68V3gYRYyH7lPxRyilgR2IbRNhXCZ2lQ0MGf8KZNEJjApY9ekTIj81p1D5X2OxXRmLwtdaM2YiZwjLNQ/YjjyUkvnAnamAz7xf2I6JwAFFYL2+Z7E9EazqboPj7kZ9Xy4XgWxK1ByNI1kiiwX23P3J4bBCIoOO5U4/hB4HA+29/xAAuXxxFUhqHTKZXLhIDtH384AMonkXGQHFQHV6ihBc1Ri7uzRsXKY3AlGnGc7T+Hw2w/vGDv8C1C9S8OOhuWysdXsEnT8wm7tf5FTme0yWBSM/Csdp20SDilDuHgEQ36SYi8M6FlS5/EIBtXVxBfBGjmBIL43KjN4yYkjE4BJVQ/Hcqy7IoiuaF2x9v/zDJrAkojNjbqjvA/zUsd3Juh2vW/bqySzSkv112HdqzgVWBQTfJ45gFkDopyaWts2khrWQJzZTV7SVZ6CoeQNqfZDrktSHrYc18umv7NBtg1+N7WncA4459W61dBetspqrtoadtjqdh277RHBAgarHjpS9sPgGO+LuqG5ITzzfZHmmWR3ZR+vHHS7Pu06Yop+54PGY3VNX9v7e/dFNZNJ4N/YzRVHDSHn06T/PDQtf9Ifdq8NjGWJc8W+KotOgqkvYqisGhr18MVVcszavJVu5LLHm5MIUyq/OHZsEoiSxIQrbwD3fqZpQgG9uMoLziFy6Zvemmq0Z0Lg7wYSrUmOiV4S+S81h19vVPs7A4cO7IKOWHgRh3F5swZC5mvi8OVp78OSzn6e8q1Imgc+6RBIN0Ukd3MfUXOpWTcTXSaQ5uqUE23BVKGesOZEd1twjBvawzcrbHVM6maTR34wSuvOKWYlzRax9Um38GVOl3iVlldjJyJYac9bR7qXJgOMJbNtIudgSbLLqQwFkvLs0NRiy9Cjo66Qq3Q4MEVCQRQOA33/0cbGj3P/iPENGEZUpGLVPYlUf4hJ7sreblwk4B/TmUdO/dAyo75HvgJaVb3c9zF2acf9nn5cC+B/GZuw6T9CcwkxiYEsjC9F/ScsF1pX3xPJhO/xbU/7xzt4isDPjj2f5k/B8QXJXaM3TYMexk4kPIZH1lSSNRLZHp/jQOw3gy+xco783zA0g4MyYz8qlYSKdmupYWdQ2C17IfmaZ9xkqwojKFcVHen5YJwsM/ho93mp02HjooYt5YXQ3o6sHEqHoNks4JaOBUlPenhMEvrGwzKGJvCE0p6+EwObD4jxNwmL0u6aZqFz2JHClxHxMoRUfwulcSKrQ1IYcBWlGFioy0cbE3eDYX5mn8hQS8kL84Y75K5QZjHXIYADnHFgBb38QdOKHhv7H5sFoSHWqLbpfAn90OOy29Uw8o6LH4YgAc5G1EW8j1B0+eIzPha0KqOUD+lk4TaLa3Uh5HBGTZGkDPE0yJO1muKj9el4cWtQRCL+9qyME94WqyBRBsjHrdi+M6xlnVxpdcz76RZMTjTFJcY9QDosN8bZh8O3XiH6jgAqDtGkTHO2i+QfNDkYPNDDFoezhuC3VvVQGPT2jzlu3N0eueVT9IiKZ7LGDbYD6w834BXN7ZxIUHh6jvZikBaZOmhQ1qx3xBVF/HAG502JJIhwFK7rVfBQK6z2sJEkW5apEsvhfQoJFcWRJ50R6swFmdmPw0QvGT+YL0+0VwFlaWRJ74iCc2j79WtubtoBpYW5AFnWWaO10Sj2okcM2evBqS40U0sKZiSKaGDZoUEEXokw+kJkPN1PDJMgBaGEJyTBWYoDMx2hKfDfOsPrvPmQhq9PCJrGQtjd9DWIvIlU/WhppoCcIup0V0Yad+ebCwAwXlYZAPUb/gOD5XGAyiOM8gukFU3MZgg/h+F4XTnDGj1DBzF+XvnUbmxwc7jahL/yk3HnsBLRV7Y+U+dNLGqR2OiTQwMjCG1AgvCDTXB291Q4MPwNtewQf2bVjwQc++1zpevBEKtGtYOIib3ajhIDVA57bwNEAH8vbeAN3BGqBjIVNnHdW6kKlGpICQaesImb4riK2x7dogtkHNKv2mVpn3OFa4MHsS5VhBPXM2rlzQQQ9qD/NBD2iG8m0HPdqlAJ939MbTY6xsww9DDVPRDkOH5Wbt2Ogw9MYK3FtYPp7erTme1nMmPI6nnaUl+i2M/2bCwA0nfVvUYX6k6Sak4BQOJIEzhaM3pHCUgq4+K6nGmBkqSqq5j8y0n2iytrekOQUmPyynOfXtmjSnO07mrdFnJJ75MbAro3H/l6mA/qUxGydnImPx5ExH1mxAcuYdZ0e6bDpVI9auoEEQp8safpFcxmpydJmFFyVul8CMy/2GBOYHRCnlGZmwiLnQsfmtszeklD+QmPIjHfPKD71TzSfeSf7xii+S0Wsur7KLiZddTP5lF02cUgWKy/ULCmGe+I7SpC8qFsPTiK3L9wIOzH3ACir7U310q35PFN21fS7BxgWV9hLXlQWixXtLXN1Fx3lA0XF5LzrO31507FkGXrzKwAuoAn+UgePiuU6VNi0DFxXmk8L7jy3M/5qrEoSXV2DsIsblFeLMKzm+5joR8QUv9mtc7Fe/aNjwgpegK3cUpfMhV+780SVI8Z2Ur7mWauVFYfQWzb+9KCz06raXOHzO1W1fc5meFz2pRNx9EZLcILxjdrPrDddcOJmToMmfXzj5NVeARrqUVfzrzS5lDbgm13BzvNwr/6irpLXzyJCLize7gdnnKmme+fCvXiXNLsVeKAuM0J8EYRSihzYfct160AX4avpZ46OANrsA/2ueJIjzSISc4Td7JOJrnu34modUPJ+2UZJzCuVpGxmJt7vM9GseG1r1/JOS0Lx4Octu05gpmNrlnZWSXvTcSPU0o+1vH+SC5IYlrlXTWWdG+pwn0qSP1ql3DyGLf8yjdd/zjGD0hx3t7L/tw47LT20elp7aVN9K/KunNkkw/R9//BSTrg1bi54neFgMAPNcGkPy0ubP0dJqoPAHgrlP/AcPBHs82fzjerL5h3/99iebtUe027BHtFs9/aM4Xm+tDW96RPt7njX/nofmnXV5d5gexTYi4Y9ucwgfJQqfiWtN0qtH7/3VlbniFQQLgl6YAathNm92cBNKINxHroOZv3+HABr2tbH2XSZnETDywp+iCg4IXipOl9IjdLYa5+t8VXJaZsPKINphgCzsprsGOrz/A/dXip7JMDR8AAAAAElFTkSuQmCC;" vertex="1" parent="jZVaUwOg5UY3L9NAnvdq-71">
          <mxGeometry x="396.44" y="48" width="73.56" height="64" as="geometry" />
        </mxCell>
        <mxCell id="wVfG-KKMgDqxT5qiAzvM-22" value="ECHO" style="shape=image;verticalLabelPosition=bottom;labelBackgroundColor=default;verticalAlign=top;aspect=fixed;imageAspect=0;image=data:image/jpeg,/9j/4AAQSkZJRgABAQAAAQABAAD/2wCEAAoGCBMSERERDhMRERERERATERERERAODhcQFxMYGBcSFxcaHysjGhwoHxcXJDUkKCwuMjIyGSE3PDcwOysxMi4BCwsLDw4PHRERHDEoISgxMTExMTExMTExMTExMTExMTExMTExMTExMTExMTExMTExMTExMTExMTExMTExMTExMf/AABEIAMgAyAMBIgACEQEDEQH/xAAbAAEAAwADAQAAAAAAAAAAAAAABAUGAQIDB//EAD8QAAECAwQFCgQFAwQDAAAAAAEAAgMEEQUhMUEGElFhcRMiMjNScoGRscE1QmKhByM0stGCw+EUU8LwFUOD/8QAGgEBAAMBAQEAAAAAAAAAAAAAAAMEBQIGAf/EADIRAAICAQIEAwcDBAMAAAAAAAABAgMRBCESMUFRBXGBEyIzNGGRoTJyscHR8PEUIyT/2gAMAwEAAhEDEQA/APsqIiAIiIAiIgCIiAIiIAiIgCIiAIiIAiIgCIiAIiIAiIgCIiAIiIAiIgCIiAIuodfS6v3XZAEREAREQBERAEREAREQBF1JpjcPIICDeL/uEB2REQBERAEREAREQBEXnEeBdUAmurXEkbBmgOJiO2G0uiODWjFzjQLJW3pfiyUH/wBXD9rfcqDpbJTesXxiYsMdFzK6jRvblxWdQEqHaUZsTlWxH8pm6pJO4jAjctZYmlrXUZNAMdhyg6BO8fKsQuabM0B9fhuDgC0ggi4i8U3Fd1i9D5GbYQ7W5KAbyx99RuaejxWi/wDNy/K8jyrdfjzK7NbCqAskQFEAREQBEXhMzTIfTN+zE+SA91DnJ9kOo6TuyPcrmPWIz8p9OHocwqKPAcw0eCPQ8CgPSanHxOkaDsi4JKTb4fRNR2TeFHRAaCSnmRLui7YfY5qYsxLS74h5grvwb5q+lIbmNDXv1j/24ZlASUREAREQBERAFlfxBJDIJaSCHuoRceiMCtUsn+IvVwe+79qm0/xEU9e//PLyIVjaUubRkyOUZhr/ADgfUMCFOnbCl5ppiyjmseez1ZO8Yg8FjAveSm4kF2tCcWndgdxGauW6SL3jzMfTeKWV4U91+SyltFph0Qse0MaKViE1bTa0DFXbIEnZ41n/AJkbfRz6/S3Bo+6uDaLYcvDjRjQOazWIFwLhjTYs9a2jjY4MeTiaxdUljnazT3XYg7is5po9DGcXt1wnj6Mqrb0jjR6taeShdhho4j6nZ8MFSL1mpZ8JxZFa5jhk4U8tvgvJfDsurE0jjQKNceVhdh17gPpdiOBuW3si2IMwKwnc7Njrnjwz8F82kpOJGdqwWOe7dgOJwC1dk6OMlwI85EALbwGuLWN4uxPAIDYLpGitYKvIAWfhaTsiRjDhMJY1pJebibwKAZY5+Ss3thTDbiQ4D+ocRmgIs5apN0K4do9LwVc4kmpvJ23nzUibknw8RVvaGHjsUZAekGK5hqwkH7eIzVpL2gx41IoArn8v+CqcCuFSfMqwlbMJvic0bPmp7IPM9Juy/mhGo7JPoV2lrMA50U13YDxKmSkSHfDhmuqBUY/dUNrTb3PcwmjQSKC4eO1S11ObwVNTq40w4ufbBYTlqsYNSCASNlzR/KiWTMOfHBeanVddl4BVan2B1zeDlclTGFbwY0NXbdfHi2WdkahERZp6QIiL6AiIgOFlPxF6EHvu/atWqu348u0MZNAFkQkAkVaCBWpOXFSUvhmnjJW1cOOmUc48z5sEWltPRg05SUcIjDeGVBNPpdms3GhuYS14LXDEO5rvJasLIz5f6PLXaeyp+8vXozaW/wDDYfdgeyydnWhFgO1oTiNrcWniFrdIPhsPuwPZYkKHTJSg0+5d8Qk42xcXjEUbKVtiXm2iFNsax+RNza/S7I7iuIGh0PlNZ0RzoWTLg47icKcFjltbPm3wrM5Vh5zRdXnDpgU8lBfp1HeL57FzQ+ISsyrOizlHNqW1AkhyMvDHKDKhawb3ON5Kx9pWlFju1ozi7Y3Bo3ABauBaktONEObaGRMibhX6XZcCqq2dFosKr4FY0PGg6wDh83gqsoSi8NGpVdC2PFB5ImjHWu7h/cFo2OINWkg7ris5o0PzX17B3fM1aqUknxMBRvaNw8Nq5JSVKWn8sQVHax8xmpEezmPo5h1a0N2FOBwXkRBlxV3Of5nwGS72bPGLrmmqG0pmaUzK6UJYz0IHqK1Pgzv2OXPgy42u83H+FUT1pviVA5rdgx8SocRxLiSSTU43nFFoVaaMd3uYGq8QstfDHZfT+pbaMdKJwb6lQLS62J3ip+jPSicGqvtHrYneK+w+NLyQt+Th5sjqfYHXDg5cSVmviX01W7Td5DFWshDhQ3hjDWIQanE3Y8FzddHhcVufdFpbOONktlnbPNloiIs49KEREAREQBZT8Rerg9537Vq1k/xF6uD33ftU2n+Kilr/AJeX+dTN2TasWXP5Tjq5sN7D4ZHetNAn5WeaGR2hkXKtzq/S72WLCLRspjLfr3PP06ydfuvePZ7m/wBJ5M/6LkoQc/U5MCl7qNxPksBTbcR5r6DNT7oElCitAcdWGCHE3gi+9QKSk+P9qN5Pr6OH3VWixwjutsvdGlrdPG6a4ZJSwtntleZjVrmfB3d3+4FS2tYMaBfTXZ221N31DEK6Z8Hf3f8AmFNdNSUXF7ZRU0lU65TUlh8LMirexrfiy9GkmJDu5rjUgfScuGCqEKsShGaw0UarZ1y4oN5Potm/6eOP9UyGA4ghxIobqE1AuOGK8J62CathXDtfwF5aG/ond5/qq0KjTTFzlnozY1estVMGnu1lnZxJNXEk7TeVcaNYReLfQqlV1o3hE4t9Cp9Qv+t+hS8PedQvX+CmdieJ9VyvSBLve4hgJvPDHMqzg2dDhDXjuBIy+XyzXUrow8+yI6tLZa8pYXd7IaNNNXkg0IF+ValSY0GDCc6JEILiSQDf4AL0s2dERzmsbRrQKZfbJUNpmsV+PSKqxjKyx525fY052Q0+mjw4lu8N9yTPWq59QzmN3dKnsuLA69vB3ooKnWD17eDlYnCMKmkUKL526mMpPqadERZR6kIiL6AiIgOFmdPJZ74UMw2lwY4l2reQCMabFplS6TWqZbknBocHOcHA3GgFbjkpKm1NNcytq4wdMlPl1PnlFwtm6UlZ5pdBIhxsx0X13tzG8LO2tY0aXqYjasyiN5zfHMeK04Xxl7r2fZnm7dHZWuJbruuXqabSD4YzuwPZYlpoQRUEeB8Ctrb/AMNh92B7LEhR6X9L8ybxLayP7UaGx9JokOjI/wCbDwr/AOwD0PBaeNChTMq5kI6jIguIbShqDhxC+cLXwSRZLiCQQ24g0PWDNcaipLEo82/Qn0OqnNShZuknz547FDatjRpepe3WZ223t8cx4quK0NkaTvYNSYHKswrcXgb63OVhM2JLTTS+Te1jji0dGv1NxBUntpQ2sW3dciv/AMWu5cVD9Hs/TuSNDv0Tu9EVaFdaOyL4Us+HFbR2tEpQggg4EHevKTsg01op1R2c6bzkooWxjKb+uxa1GlsshXFLkt/pyK6BCc80YCT/ANx2LQWNJGE12uQS6lQMBTfmosxaMOGNSA0Gmfy/5XpYUZz+ULySbvC44bFzdKc4Zxhfk60ldNVqSfFLffojpNWoyGCyXaM76UbXdtVRGiueavNTv9l0dieJ9UVmuqMOXPuZ1+psteHy6JbIt9GOlE4N9Sq+0etid8qw0a6UTgFCm4TnxogYCTrHD32KOLStk32LNkW9JBJb5ZECsdH2ExQ6hoAb8qkbVIl7Lawa8cigyrQeJzUiTtBroghwm0ZQ34G7YP5XNt3FFqO66s60uk9nZGVssPoupbIgRZ56IIiIAiIgOCsp+IvVwu+79q1ZWU/EXq4Pfd+1Taf4sSnr/l5eRjoTy0hzSWuGBFxruWlsjSkgak0NduGvSpp9QzWZRadlcZ8zzNOospfuP06H0e2JMTEtqQSGhwY5l1BQXgblgbQkIsB2rGYW7Di08HC5bC2IzodnwnQ3Frg2DQtuOSgWbpKyI3kp5oIN2vSreJHuFTolOMW1us7rqa+tjTbNKb4ZY2fTyZlVrmfB3d3+4uloaMNiN5SScCDfqk1b/ScvFe8WA6HZURkQFrgLwcemFJZbGajh75WxBp9NZS58S24XhmNXrKTL4Tg6E4tI2XeYzXkhVxpPZmUm47p4Po2jtovjS/KxANYawNLgaZqqnJ58WusaNyaLm+O1SNDf0Tu8/wBVWhUqa4+0l9Ga2sus9jWsvdZ8zlXGjfRicR6FUyutG8Iv9PoVJqfhv0K/h/x16/wUzsTxPquWtJIABJOQvKnyllPeav5janHpUrkFMfHgy41YY1n7byfE+y+SvX6YrLPsNG8cdmIx7vm/I72FJuh6zn3awFBn4pPWiyEXNhgF1b8hXec1xYs26I+IXm6jaDAC8qotHrIneKgjXx2vjLtl6q00fY7LOMvodJmYfENXmvoOAUuwOvb3Xeir1YWD1zeDlasilW0uxnaablqIttt5NOiIsg9YERF9AREQBUelllOmIbeTIDmEkA4GopSuSvFxRdRk4vKI7a1bBwlyZ8pnJSJBdqxWlp34eBzXgvqs5KQ4rS2K0OG/2OSyds6JuFXSx1h/tu6XBrs+BWhVq4vaXP8ABgajwucHmvddupN0g+Gw+7A9QsStvpGwts5gcKECCCM6gioWIXWk/S/Mi8T+JH9qJdl2lFl3VhOIGbDew8R7i9bqDPw40nyswAIbhSIDVzelTjjRfOlrm/CXd3+4Fzqa47PG+cEnh181xxzslnHTkeFoaMBw5STeHtN+oTW76XexWajwXMJbEa5rhiHAgqVZlpxZc1hOoM2G9h4j+Fp5a05adaIcw0Mi5Vuv+l2XAr7xWVc91+UcKujUfo9yXZ8n5Htod+id3n+qrQtJZNmCDBdCDi5pLiCcaHI7V4sl4MuKxDrOyzPgFDXclKTSbyy5fo5SrrTaSisNsgSVmPiXnmN2uxpuCubNhQ2BzWGpFNY1qa0zVPO2o99zeY3YOlTeVK0bwieHolsbHHin9jnSTphaoVLPPL/siJP2m99Q3mtvuHSPEqEuHYnifVcq3CCisRMu62dk8ybLbRnpRODfUqvtHrYneKsNGek/g31K6RLNfEivPRbrG8+wVfijG6Tb6IvuqdmkhGCy8lWBXC8+ZVxYkg9rhEcKChuPSv8ARWMnIMh4Cp7RvKmUUNup4to8i3pPDfZyU5vc5REVU1wiIgCIiAIiIAlERARLSkmR4ZhxBVp2GhqMCFirX0Yiwquhfms2C6IBvGfh5Lfopa7pV8vsVNRo67173PufIiMjcfI+S1zPhDu7/cCurWsODMVLhqv7bbneO1QZ+z3QbOiQR+YQ27VBqRrA4cFZnqI2Jd8ozq9DZQ5vO3C0mjCpVEKvmGbzRGM50mS5xJBcASamgwCrHOLiS4kk5nFWOhv6J3ef6qsCqUpcc/M09ZJ+xq8grrRvoxOI9CqVXejTatibyOGC61Pw36HHh/zCx2ZSuxPE+qkSck+J0Rd2jcP8q3krHa060TnHZ8v+VatAFwu+yhs1WNo/ctUeFuTzY8LsuZCs2QEIE1JcQKnhsU4LlFSlJyeWbddca4qMeQREXw7CIiAIiIAiIgCIiAIiIAiIgCIiApLW0egx6uA5OJ225n6hgVjrXsSNArrt1mdtt7ab9nivpZXVzQag0O43jyU9eonD6ooanw+q7fGH3RndDv0bu8/1UGBBc80YCT9vFaqBKsY0sY0Na4klouFTjw8F3gQWsFGAAbl1HUcLbXUjs8PdihGUtorf6lXI2MBfFv8ApHR8dqtocMNFGgAbBcF3ouVDOcpvLZcp09dSxBAIiLgnCIiAIiIAiIgCIiAIiIAiIgCIiAIiIAiIgCIiAIiIAiIgCIiAIiIAiIgCIiAIiIAiIgCIiAIiIAiIgCIiAIiIAiIgCIiAIiIAiIgCIiAIiIAiIgP/2Q==;" vertex="1" parent="jZVaUwOg5UY3L9NAnvdq-71">
          <mxGeometry x="190" y="40" width="80" height="80" as="geometry" />
        </mxCell>
        <mxCell id="wVfG-KKMgDqxT5qiAzvM-23" value="CI/CD" style="text;html=1;strokeColor=none;fillColor=none;align=center;verticalAlign=middle;whiteSpace=wrap;rounded=0;" vertex="1" parent="jZVaUwOg5UY3L9NAnvdq-71">
          <mxGeometry x="305" y="90" width="60" height="30" as="geometry" />
        </mxCell>
        <mxCell id="wVfG-KKMgDqxT5qiAzvM-24" style="edgeStyle=orthogonalEdgeStyle;rounded=0;orthogonalLoop=1;jettySize=auto;html=1;entryX=1;entryY=0.5;entryDx=0;entryDy=0;entryPerimeter=0;" edge="1" parent="jZVaUwOg5UY3L9NAnvdq-71" source="wVfG-KKMgDqxT5qiAzvM-5" target="wVfG-KKMgDqxT5qiAzvM-11">
          <mxGeometry relative="1" as="geometry" />
        </mxCell>
        <mxCell id="wVfG-KKMgDqxT5qiAzvM-25" value="이미지 확인 후 파이프라인 실행" style="text;html=1;strokeColor=none;fillColor=none;align=center;verticalAlign=middle;whiteSpace=wrap;rounded=0;" vertex="1" parent="jZVaUwOg5UY3L9NAnvdq-71">
          <mxGeometry x="30" y="218" width="160" height="30" as="geometry" />
        </mxCell>
        <mxCell id="wVfG-KKMgDqxT5qiAzvM-29" style="edgeStyle=orthogonalEdgeStyle;rounded=0;orthogonalLoop=1;jettySize=auto;html=1;" edge="1" parent="jZVaUwOg5UY3L9NAnvdq-71" source="wVfG-KKMgDqxT5qiAzvM-26" target="wVfG-KKMgDqxT5qiAzvM-4">
          <mxGeometry relative="1" as="geometry" />
        </mxCell>
        <mxCell id="wVfG-KKMgDqxT5qiAzvM-26" value="Fargate" style="sketch=0;points=[[0,0,0],[0.25,0,0],[0.5,0,0],[0.75,0,0],[1,0,0],[0,1,0],[0.25,1,0],[0.5,1,0],[0.75,1,0],[1,1,0],[0,0.25,0],[0,0.5,0],[0,0.75,0],[1,0.25,0],[1,0.5,0],[1,0.75,0]];outlineConnect=0;fontColor=#232F3E;fillColor=#ED7100;strokeColor=#ffffff;dashed=0;verticalLabelPosition=bottom;verticalAlign=top;align=center;html=1;fontSize=12;fontStyle=0;aspect=fixed;shape=mxgraph.aws4.resourceIcon;resIcon=mxgraph.aws4.fargate;" vertex="1" parent="jZVaUwOg5UY3L9NAnvdq-71">
          <mxGeometry x="260.44" y="540" width="78" height="78" as="geometry" />
        </mxCell>
        <mxCell id="wVfG-KKMgDqxT5qiAzvM-33" value="Rest API&amp;nbsp;&lt;span style=&quot;white-space: pre;&quot;&gt;&#x9;&lt;/span&gt;통신" style="text;html=1;strokeColor=none;fillColor=none;align=center;verticalAlign=middle;whiteSpace=wrap;rounded=0;" vertex="1" parent="jZVaUwOg5UY3L9NAnvdq-71">
          <mxGeometry x="410" y="310" width="110" height="30" as="geometry" />
        </mxCell>
        <mxCell id="wVfG-KKMgDqxT5qiAzvM-38" value="Prometheus, Grafana, Loki" style="shape=image;verticalLabelPosition=bottom;labelBackgroundColor=default;verticalAlign=top;aspect=fixed;imageAspect=0;image=data:image/png,iVBORw0KGgoAAAANSUhEUgAAAU0AAACXCAMAAACm/PkLAAABj1BMVEX////3wCL6wQzwWyf6vA73nhXxYSX4zCHycSH0hBz5tw/40iD2lxf2khnyZSXyZyT1jhr4pRT4qhLybCP0fh75sxDzdyD4rhH1iBz7xQv3nBb2qiTzfB/ybCn0kCb1lib4wyL2sSP0hCf1oCX4yQD40ADzeCjzeijzgCj0kwD2rST4ngDxYADzegD1niXzfADziAD3qY7ybQD+9Nz+9fHvSQDxYwDxXhT95tzxVwD+8ObzcwD0jQD96df71pj86rP62Gj5wa/72c783Mb50W/86sP0iWnwVBn+8u7839X2oH/6yLfzdUL0i174sZLzbhn2n3L5xqr2m1L5vJb71Ln4tYX72bD5yY34tWr7z5z4xj7+9+b62ZH989T63Hz87Lvxaj72noX3sJ3xZjf1lGf0gknyeFL0gk/2oYrzdTn1mGT0hUL3qn70jUX2nWb60Lb2oFf1j0r4vI71mEH6zan2olL2o0L3rV74vHb3rlH4v3D3sEH4vGP5x3/6y5H4yVn501D5zWL75aD64H37zUDccWRcAAAUJElEQVR4nO1dCVcTWRaujqiggBB2MMgmiwECSUEWCFsIW5SAQAQC0k332IMiqOCIAoq0P3zue7dS66uksrwkZybfnFOdVN16df3qfnd54ZwRhBJKKKGEEkoooYQSSiihhBL+NyEW2oH0sTA2W2gXWJhdOPIvFNqJdOG7s3hn7M1Sod0wYtRbXf280E6kicjYHcDi2FyhHTEgAmx6C+1EekAyAWORQruix7K/utpfhJoxh0xmEdIpApve4pOMOZYVMoHOYvPc63B4i7I+siEu3lFjrFhktYyN0d+PHI9GC+xKGnijZXPx90I7BBAXjrxjy/TjyiNH3QthaW52dKXATlnB7NgdLRYPC+0SgGRLTOGzIPU64dDv9foL7JMFiHoyi0Prz4FN1PfcoMMxKMxBo+Qv/pnoj0UDm4t/FNopmMyqq6txBPIBm+O+JdIoLRfYqZRghCYEZ+GDYNXreOTAj4TNiOCVpS8BMmkxpCQNDo2hWRSZM+Il+qborXNED4WjOsejVZXB7FgRJtI/GWTeufN7xMcyXvL5mOdzjoCwTLIlPuyvOkfdmrAGjdJfKpNinJGWWEIn0Tk29udCRCX4pdmFO2ME3Jt7ceE5NEciYROftRp11P1LOPQ66o7UZkU3I839weZSYnRx7M0hvv3Im7FFTAmLb7h7hc3RuDwCRaLl5W619JcjhwsRobq6mGakuYWxMVbS1MXom4gQeKOK4DHuWifN0SEdgbBdX3b39o6LpLQPBuiJI+g9R4W/IQEUy4wU+TM1lcin/3eN4eK/ebuGzdEKkPU3/b4EbLqXSbCOo7JXwOAFmZEeveDtiyXM3jHJlxZwj7dzmCFnIVuO44loeW80IjigtK9LBtXVR3RGcvD2RYel5cjs4ejo4WxkWa4ps17/vczhD3B2mWTIcWGOxCK6/K6xt3FVeAHBuiIbDOKMlMfGePlw4Z7fD0mGAD78uUKqtO95NlwCm7x3QGmGXFoibOLwswZsvhVWognpYwoN0BmJsy8JLP/hBR61RAClC4djWXEJi/Bu7aXmaLy8PIovbiPa29sH0i8vL0cLycDhiOZnb9v3u9/L5oJ9Oh02uRdSbI56IVvi8HNKypAwR0s7PXFEDY7ojJQPzPqr792rJv9L63DPwsHLfZvxBe191sp7y3H48bn7+tyBpXFa2qkB7Z5wRsoHZr3pEmn5wD82SYZ8ASNQb/k7PDHR2+cOCaD36Cn9PkpT6CpI/x1vXyhIE8EJ3PMmaY4cUUnfFH29vY3rUmmXDOrqYEbqLY/y9oUiMza9Kpga+bkPx7Q5An0Dm9iNvX3c//iYlvY1xUCkM1Je9j1mBx+lB++g3+9YGU1g5YXD7x/0siwHudfRJSjnbp9I2AzRE1vA5kci/UZUdmDcUT6+LJJEmpd9j0habHr9jtGI4S0vz644/AxCuTec0vDT2NvXiMPP+uP+/scgfShGaOCmBkC3NB1xxpx1Nr3+o0NTvfgOnxsJ5a71d7Q5+tjY13hMvy9P9PdPiL6JvoT0/yUZJBIpZ/gG66xhcHwlxa8tvtFx/WKDnIdL0hytCcdA1kf6fQnYHPIJEJsTIdngL2rwlq8nCNEam4NHllQ7e6RbjvNuw2ojyZDrjX2gb4p6YPNU6AO9o7JxOgKDvka+nkiIWuByvM5yBow4xjV3/pX6liyAzVGI6pueeP+4v35DKu3UHZyOiPTzsu/xwkJgpjXUzA6qXxDfwk6bo6UAYRPT0HF9V/2JcExLu2wQCEyA9POy77E6bsqiFF6ONP0QX6jlznUvDJqjvok5YYLqm2Cjvquri5b2ep3BxClHP2TMucuTYjyDCXd9XLk/ynXbuw/IguGnn+ibYNPV1eVSSx8yJjRH/ZBIN3j6IWPcnElCZkadhS8aVVbgqfW30BytCieg7BN88FBX11CAlHZJ2WAAKZQY5Gff4+9ozskEhb1TVuU5IpMM+VbYAGX343OBTVcIlN0lSR9T6EZ9/+P3HN1QsJ5E6pmSCVDodHNsnNcpj6ckIvEEpM2KdeF9V5ckfWIwBAYQrPy8UEE0l7r7OIt1FTo57jjQDCnpm574UNFVsSWc0NIuG4i+of6EAW+8NZN6NLv5QaYzyi9l0ebIJ+mbYAvYfCmVdq3BUIibF2rMuRuZKM9yfIDcKa3k5hecIOGhTaEClI3Dzzl8bKalfUgxOCUGrrzse5AfTplwZ/1XkH3SShPZZIzkwOHnJbCJzwiNtLePiEESrKhsTKHEYIubExqEmMGZVdJELCUWdufASzZIhjyW9E0QIGwGRZcsfUyhW3D8wM0JLT4yYzMHC59KdE5wUxnJkO+pvivwhKu9vXlTaKalnRpUEIN1oLuLlw86+BjB6U41iflON47XAMer6yHTcrk2gav159hjGSRDVgghEos4/Jw1tzdvSKWd4JSmUGrAywc9Vice65G82Q2tTbgn1Pi4wZ7m+xvpam5eew60ORIDQNZIkJ44ATa3hS04orIxhRIDV5CTDwa805OZ9HeU9f4JA/1wZoMRogE3XuXVwdPmKEj1Le171LS3nwnnzXACDTCFknS6yckHAwzkfDS3DT02RjJS5j4x8rmBxtykTjLkudAOsfiJft8kvNHSLkkfDTAB5AenE/VaJNm/OtHbqjA0sWbYgOvHBXm1nCRDfhI+KMombAawtNMTL5ubm7doAshTiyScDOlpMbP01etN9Xzqy3eIss+tqpPm6IPwCZTdTr+LhEe1sjGFgkHzGScX9DCQafYa15MEZiKs3+vC8yVd8YST6+eUR9Q3BeTNGlA2HD/pDGo4uaCDzyB0kxK8kZpMwlyItTon3+nwI+mbnvhc016zJWzDcVs2cKkNeGNDH5smja7Bziw8tVn3xEUo5vSLBs2QAUnfBFtVT6q+CJ9oaZcNgioD3nhZoYWLXf3OhyosQktngNw3xKvbc1GaUN/Uy6onT56opY8pVDHgDZeODPZWYFBLpksCk84hTW93AkYuXt3eGaUJ9U0QmnzyZFKtbGKwoTLgDJ8+5thC13F5sh4CbG58YDKqCUXyHly8AmOb0rQFsfeZfg8QNoMCOYZkgwspAeQB6zo2XJ9YVlsqq6GX6hQUOmbw6VLnyTP4ziswIEPWfBbOa0hEUhAeNwWQe9V5woBMRzQB5AHAUzMhIHFgilIcak6YVDTrDUSkWrOKurs7h8u8WiRp+CEcorIJjzvCZ4hFfIGbcKkKDfLx9x5kWlDDxUqbWyPyZVYXHDhz6VdRlbKAq3mEV2zSDClK+ibYrnpSicpG6QcpjyoDvtDR0DzCMpLJcpnsum4Y6FS9lPZmkz4he0DvI+VJSdnfK4cr/6NStqgk0jzse4g6GkZeMozOE6E5YrqFHdKvo4rhTyP8mj2grQrzJOb72MDwcKVa2VWUaDCo3OHlg4zNGn1osjT5IcFmu/lKwRHdQkoohFzMgM8JvlQRHr/INTsIbA4EAuSIyv5Mid6GkN3m5gQicKajAEhg9TIjyHkNM6cmEHRp34yK+XZ+vd4nyuOryidPhul3EXkkxxg9cQGJ9IuUALjifGSkRg/WrmpIMhtJnv02tavlZ5TDDEn0PYAnWoeHW2PCf4A9VPZO5TAQvakYcMK2kUs2B+cJNlMsuKVZcOQzF691kIYfRdlfgc1XKmWHKI+YADj6ccYis2aE0UdItDOTgAbt2qXysWtDep+BANU3xsFF63ArKBtC9BINKI+ic3jYybFFameSyWTzTLqUsv0NadZMkRhyhErKIxxbJWUDj91CjAgeDYDN1pCUAHjhbJJJJpPNySpyZdKCcj+rV63Ky3Y3Zkii7wv6PXS3u9spBAl7qI1uSjQmAE74PFnFBptNgkkLOxehEc1a+ZA6yZAXRN/DWLMDTmAzKLbCUdr3aCVEXwDJXzm5sGVGZhI2WVdMTCXkY/ogNXv4K9X3XTwBbN4NCUDeXVQ2pFDgcQdOdPPxQBtCVmPTysqa1zR5kWvHGYhRHqm+JWV3d9eCsoFNVHaMSj9EQpaLA+JkpSlYewMDeMXK0iH10gOc+2UKkiEHRNQ3PXFV2333QriWlR0kl9QGOcaXAXM2BxjqHMYrltbWvCi+/TICMiTpfSBPSjX7VW139yVVdi0aII/kyKOoh5KEZuUAo9ZcUPat7Q8O55tNomzIkN2Ksp2ER6ps9Bh5vKQJIPcYZvMoEcDYGzinbA5YmhS31XGfFzYhQ7Z+p/q+ot+DtW1tGmVf1nbXvhK+1bbVfsv902NJdA4YNt4RRDa/W1k9/2y+utt99xvVN9Zs0dnWVhsUgNNaVDbh8Ur4Dicuc//04dakYE2zeIXBsxHbA+q1cu07CzHa+4C+2yRlA232mNAGbErTEZxoE2J2OJ3zh4cGmCQqDDBS9Q69x5LU1WzmJzax96H6lpQNtIGy7W12VHYYeKwVguQYz/XDvyQns7WV9UspUmSl+912qpbi0+DpECdsxqm+JWUDb6Bse0LZnlrKIwnZnLdIA3dTgBVQO056xUKH8dWpWiovbAqEx5BAhCwpGz4+UyubfAoT6dtz3iLFUtHJ7MqQIws7hE7NUrl2nonLWpIhib7VyvYoysYUetn2zH6d84fvpKKTJeiQdFOqnlPULJ4fNkmGvKb6VpRtj4u1NCIJrtqIwbX92bOr3D89FZ0DrOzyCm9KNZwFtWxy8N6IKeDxK9U3Dj8C0AY8PoMjyozwCNMRHDs5PD6F2NkcXEhiT75JeO3ULsVrE0wNzJBhRdmER1D2s4SyY8BjkxBu6uxs4vH3HiGnszYJnMz0+B3vcTpfyZdjBlPDUhzGDz1ozRbjJCL36YkrIA+U3fSsE+Nin/IYJ0cPDwcCbcnodLJ30hLvwOlsu94BXMF3XVYIGpblstOgBc2QHqpvSdnA2w9hB46obIlHcgzzceE6KZ3s2i1+TdzkpID/6vYRroyrOvn/MRXy2EkjkiAGvDWgstGAfIoJl3B2ipMLwSThaZrugl9VOcLpvNTVpDhjSWfuuxI9QNn2KeEKQtFE2YTHPWG+obNhPt214+Epa/fEzLOnuT7jsW9tGJlt14b6/o21IP/ghAzZdEX1rVF2A3CIyiY8XglTDQ0N1ou66DnYm98tI7CYbKGKmNGZdKIVAQyDAHM1J7efChOIUR5jirIJjyB9WdnIY7hzfspK3ozvT+/9oDSW/UZQZjnZhkmms7OQwb/qK3Mhe20GS6UFzJD7irJ3KY9XsrLDndeWePSArHcVGiWU7Vl3RYx9s7MITX8vMMx+Lfba/bSXSg9U2XFRUfY3quy9poaGH9ZWECEcf/5m4BFhSzPZisErIwlpzzFsLgHcpY48NijKpjx6whY24EiV2TXjUcJuuv6IjLhKk07GC8k4zNMEZshdyI7osxUeSZX5aZQ1C7a0HdrJls5XJjq35yFxfmtogFZz/tJadgR4dsss8SglzvQ3mTubDEgnqGJ24/3SKp053/HWY+rHXsyKqkl2xE8WeQR0dHTY0p+g4kw6rM61Scjk372nRvwgUazL8IQVNjsSsN2m/8QpFiF2a6MY8156/xX3wEwOfHz4QULVkmp3LdHYYSPo+DGdwYMvmXxcWqDjykzjU4XjEor13o/fpFhUlC214vO2VDy2AI+/5m8PPBmOcmITNBZG2FM1r55O431NU1Ox/cL9v4ceyD2PXtmSavf0bGrDseXH3vR+lpHgYbLZ0NSUTO7iNzvjFl57NUlBRhl89WElFnXKtr1GA5uBRuRxd34vnKNN0DCbTuDz2uQJ8WvmLRZHkJwhLo8y2GkblS0HIbrmKdOHY0cOwlGHKTabhNDOKQOh8dilCf351viU0jviCXNld6CBTeaxhWZHHl6JDQ9M0dDw4OdUYsgQPeG9zgYT6ybeg7kBKmXji2QrmxKId3SkEY7xg8z+QbEkbCKjyGDiv2yj/CdNj8Im/sMNyrbJssYwnLaSHUm7P/Orp6dnJiOv5pOTaQkNhWjXZSHbsDeUlZ2IRZtcZSyJOh6+fX3TQ3Cf4FdGTuWCzLR/LMgF5FC0SUXdligyNpR+y6+flmRN9uZm7is8Inoy8SlZ2rSKgpAp/JDpxEHco1QZqwVGF44a9GRS7PcflGWJApEpKZsyiCewWO9ZKdbscNTgaSa/HIezZfNBQbp2wLRSZVDZt5a2ig/Mw1HLZgb7HsJ0tmRy+vE/NcI2qQf/uWex171NEY4KHj58+PSfDHyayo7M3cIN5nEo1reWmp6DW+yhZlLz+FDBTQY+7WXHZsEi0wrE/QMpO6Jqb5Ox+VCPpxk88bbMlgWKm837CVX34HR0wGTTQCMQSfAwA9lNZ0OmzerfROQPngMyykjKlhm7wWs9qXhEGm9eZ7oZcpAdm4VLmwy8vrmPRaYHpyOVstGgJ1U4zmS+VUzhYSp9d95mKQN0ZM1A9iDZERm4n2CrB6cjRdk9kgGDRuTx5h9L/VVKXxislZE0E37dkZrQ19k7kAU88iijV/YMXlfYRIMbZjhO5/AXgxY9bL8SyRAGr/lfLS0ScwZDuFLYItQiVxlp34OpbEocGrx+qg3Hg5z/hjWvI6jjQG8hevb39z3TLDpz7Ux6kLmTlD2txCIaKGGILdK0FI4ZV5mUmNZweWMebXtGOtP4SzIe0Ct7X64yT1FeMzKbksEMpy13GWKCJFvLzXTSNzavJ9NW4IouK/shKjvekygzT1FgRNkYjpmMiRlhBnj5BcGf+qW9thVVaBqV/dSgbOgdc1KseWC6pUeNQruzr1QZDIVfcpGZKaxn1uC5r3DZUvCpMq7EIip7BkeZf3hnx5zhVmazsL0mhUHZOe0d84Lp+1Tvmf0KlVv8knvHTP4Iq0jg2QNCC+0EwUyuR5n/axRpsS6hhBJKKKGEEkoooYQSSvjfwH8BYaAJ1gq65cEAAAAASUVORK5CYII=;" vertex="1" parent="jZVaUwOg5UY3L9NAnvdq-71">
          <mxGeometry x="630" y="460.74" width="108.62" height="49.26" as="geometry" />
        </mxCell>
        <mxCell id="wVfG-KKMgDqxT5qiAzvM-35" value="" style="shape=image;verticalLabelPosition=bottom;labelBackgroundColor=default;verticalAlign=top;aspect=fixed;imageAspect=0;image=https://encrypted-tbn0.gstatic.com/images?q=tbn:ANd9GcStA-OL8wtJj3tbuP5zd3Ttb1wDqF3BASmqxA&amp;usqp=CAU;" vertex="1" parent="jZVaUwOg5UY3L9NAnvdq-71">
          <mxGeometry x="759" y="460.74" width="54.33" height="54.09" as="geometry" />
        </mxCell>
        <mxCell id="wVfG-KKMgDqxT5qiAzvM-52" style="edgeStyle=orthogonalEdgeStyle;rounded=0;orthogonalLoop=1;jettySize=auto;html=1;entryX=1;entryY=0.5;entryDx=0;entryDy=0;" edge="1" parent="jZVaUwOg5UY3L9NAnvdq-71" source="wVfG-KKMgDqxT5qiAzvM-41" target="wVfG-KKMgDqxT5qiAzvM-47">
          <mxGeometry relative="1" as="geometry" />
        </mxCell>
        <mxCell id="wVfG-KKMgDqxT5qiAzvM-53" style="edgeStyle=orthogonalEdgeStyle;rounded=0;orthogonalLoop=1;jettySize=auto;html=1;" edge="1" parent="jZVaUwOg5UY3L9NAnvdq-71" source="wVfG-KKMgDqxT5qiAzvM-41" target="jZVaUwOg5UY3L9NAnvdq-73">
          <mxGeometry relative="1" as="geometry" />
        </mxCell>
        <mxCell id="wVfG-KKMgDqxT5qiAzvM-41" value="Cloud Watch" style="outlineConnect=0;dashed=0;verticalLabelPosition=bottom;verticalAlign=top;align=center;html=1;shape=mxgraph.aws3.cloudwatch;fillColor=#759C3E;gradientColor=none;" vertex="1" parent="jZVaUwOg5UY3L9NAnvdq-71">
          <mxGeometry x="681" y="200" width="82.5" height="93" as="geometry" />
        </mxCell>
        <mxCell id="wVfG-KKMgDqxT5qiAzvM-43" style="edgeStyle=orthogonalEdgeStyle;rounded=0;orthogonalLoop=1;jettySize=auto;html=1;" edge="1" parent="jZVaUwOg5UY3L9NAnvdq-71" source="wVfG-KKMgDqxT5qiAzvM-14" target="wVfG-KKMgDqxT5qiAzvM-4">
          <mxGeometry relative="1" as="geometry" />
        </mxCell>
        <mxCell id="wVfG-KKMgDqxT5qiAzvM-14" value="code deploy" style="outlineConnect=0;dashed=0;verticalLabelPosition=bottom;verticalAlign=top;align=center;html=1;shape=mxgraph.aws3.codedeploy;fillColor=#759C3E;gradientColor=none;" vertex="1" parent="jZVaUwOg5UY3L9NAnvdq-71">
          <mxGeometry x="80" y="410" width="67.5" height="81" as="geometry" />
        </mxCell>
        <mxCell id="wVfG-KKMgDqxT5qiAzvM-42" style="edgeStyle=orthogonalEdgeStyle;rounded=0;orthogonalLoop=1;jettySize=auto;html=1;entryX=0.5;entryY=0;entryDx=0;entryDy=0;entryPerimeter=0;" edge="1" parent="jZVaUwOg5UY3L9NAnvdq-71" source="wVfG-KKMgDqxT5qiAzvM-11" target="wVfG-KKMgDqxT5qiAzvM-14">
          <mxGeometry relative="1" as="geometry" />
        </mxCell>
        <mxCell id="wVfG-KKMgDqxT5qiAzvM-44" value="배포" style="text;html=1;strokeColor=none;fillColor=none;align=center;verticalAlign=middle;whiteSpace=wrap;rounded=0;" vertex="1" parent="jZVaUwOg5UY3L9NAnvdq-71">
          <mxGeometry x="147.5" y="450" width="100" height="30" as="geometry" />
        </mxCell>
        <mxCell id="wVfG-KKMgDqxT5qiAzvM-45" value="EC2" style="sketch=0;points=[[0,0,0],[0.25,0,0],[0.5,0,0],[0.75,0,0],[1,0,0],[0,1,0],[0.25,1,0],[0.5,1,0],[0.75,1,0],[1,1,0],[0,0.25,0],[0,0.5,0],[0,0.75,0],[1,0.25,0],[1,0.5,0],[1,0.75,0]];outlineConnect=0;fontColor=#232F3E;fillColor=#ED7100;strokeColor=#ffffff;dashed=0;verticalLabelPosition=bottom;verticalAlign=top;align=center;html=1;fontSize=12;fontStyle=0;aspect=fixed;shape=mxgraph.aws4.resourceIcon;resIcon=mxgraph.aws4.ec2;" vertex="1" parent="jZVaUwOg5UY3L9NAnvdq-71">
          <mxGeometry x="681" y="340.5" width="78" height="78" as="geometry" />
        </mxCell>
        <mxCell id="wVfG-KKMgDqxT5qiAzvM-48" value="Fargate" style="sketch=0;points=[[0,0,0],[0.25,0,0],[0.5,0,0],[0.75,0,0],[1,0,0],[0,1,0],[0.25,1,0],[0.5,1,0],[0.75,1,0],[1,1,0],[0,0.25,0],[0,0.5,0],[0,0.75,0],[1,0.25,0],[1,0.5,0],[1,0.75,0]];outlineConnect=0;fontColor=#232F3E;fillColor=#ED7100;strokeColor=#ffffff;dashed=0;verticalLabelPosition=bottom;verticalAlign=top;align=center;html=1;fontSize=12;fontStyle=0;aspect=fixed;shape=mxgraph.aws4.resourceIcon;resIcon=mxgraph.aws4.fargate;" vertex="1" parent="jZVaUwOg5UY3L9NAnvdq-71">
          <mxGeometry x="308" y="540" width="78" height="78" as="geometry" />
        </mxCell>
        <mxCell id="wVfG-KKMgDqxT5qiAzvM-49" value="Fargate" style="sketch=0;points=[[0,0,0],[0.25,0,0],[0.5,0,0],[0.75,0,0],[1,0,0],[0,1,0],[0.25,1,0],[0.5,1,0],[0.75,1,0],[1,1,0],[0,0.25,0],[0,0.5,0],[0,0.75,0],[1,0.25,0],[1,0.5,0],[1,0.75,0]];outlineConnect=0;fontColor=#232F3E;fillColor=#ED7100;strokeColor=#ffffff;dashed=0;verticalLabelPosition=bottom;verticalAlign=top;align=center;html=1;fontSize=12;fontStyle=0;aspect=fixed;shape=mxgraph.aws4.resourceIcon;resIcon=mxgraph.aws4.fargate;" vertex="1" parent="jZVaUwOg5UY3L9NAnvdq-71">
          <mxGeometry x="360" y="540" width="78" height="78" as="geometry" />
        </mxCell>
        <mxCell id="wVfG-KKMgDqxT5qiAzvM-51" value="Auto Scale" style="sketch=0;outlineConnect=0;fontColor=#232F3E;gradientColor=none;fillColor=#ED7100;strokeColor=none;dashed=0;verticalLabelPosition=bottom;verticalAlign=top;align=center;html=1;fontSize=12;fontStyle=0;aspect=fixed;pointerEvents=1;shape=mxgraph.aws4.auto_scaling2;" vertex="1" parent="jZVaUwOg5UY3L9NAnvdq-71">
          <mxGeometry x="349" y="462" width="48" height="48" as="geometry" />
        </mxCell>
        <mxCell id="wVfG-KKMgDqxT5qiAzvM-54" value="모니터링" style="text;html=1;strokeColor=none;fillColor=none;align=center;verticalAlign=middle;whiteSpace=wrap;rounded=0;" vertex="1" parent="jZVaUwOg5UY3L9NAnvdq-71">
          <mxGeometry x="692.25" y="150" width="60" height="30" as="geometry" />
        </mxCell>
        <mxCell id="wVfG-KKMgDqxT5qiAzvM-31" value="유저 접속" style="text;html=1;strokeColor=none;fillColor=none;align=center;verticalAlign=middle;whiteSpace=wrap;rounded=0;" vertex="1" parent="jZVaUwOg5UY3L9NAnvdq-71">
          <mxGeometry x="619" y="40" width="60" height="30" as="geometry" />
        </mxCell>
        <mxCell id="wVfG-KKMgDqxT5qiAzvM-30" style="edgeStyle=orthogonalEdgeStyle;rounded=0;orthogonalLoop=1;jettySize=auto;html=1;" edge="1" parent="jZVaUwOg5UY3L9NAnvdq-71" source="wVfG-KKMgDqxT5qiAzvM-31" target="jZVaUwOg5UY3L9NAnvdq-73">
          <mxGeometry relative="1" as="geometry">
            <Array as="points">
              <mxPoint x="649" y="209" />
            </Array>
          </mxGeometry>
        </mxCell>
        <mxCell id="jZVaUwOg5UY3L9NAnvdq-88" value="Users&lt;br&gt;" style="outlineConnect=0;fontColor=#232F3E;gradientColor=none;fillColor=#232F3E;strokeColor=none;dashed=0;verticalLabelPosition=bottom;verticalAlign=top;align=center;html=1;fontSize=12;fontStyle=0;aspect=fixed;pointerEvents=1;shape=mxgraph.aws4.users;labelBackgroundColor=none;" vertex="1" parent="1">
          <mxGeometry x="610" y="-1.1368683772161603e-13" width="78" height="78" as="geometry" />
        </mxCell>
        <mxCell id="wVfG-KKMgDqxT5qiAzvM-18" style="edgeStyle=orthogonalEdgeStyle;rounded=0;orthogonalLoop=1;jettySize=auto;html=1;" edge="1" parent="1" source="wVfG-KKMgDqxT5qiAzvM-7" target="wVfG-KKMgDqxT5qiAzvM-6">
          <mxGeometry relative="1" as="geometry" />
        </mxCell>
        <mxCell id="wVfG-KKMgDqxT5qiAzvM-7" value="Github" style="dashed=0;outlineConnect=0;html=1;align=center;labelPosition=center;verticalLabelPosition=bottom;verticalAlign=top;shape=mxgraph.weblogos.github" vertex="1" parent="1">
          <mxGeometry x="170" y="3" width="75" height="75" as="geometry" />
        </mxCell>
        <mxCell id="wVfG-KKMgDqxT5qiAzvM-17" style="edgeStyle=orthogonalEdgeStyle;rounded=0;orthogonalLoop=1;jettySize=auto;html=1;" edge="1" parent="1" source="jZVaUwOg5UY3L9NAnvdq-61" target="wVfG-KKMgDqxT5qiAzvM-7">
          <mxGeometry relative="1" as="geometry" />
        </mxCell>
        <mxCell id="jZVaUwOg5UY3L9NAnvdq-61" value="개발자" style="outlineConnect=0;fontColor=#232F3E;gradientColor=none;fillColor=#232F3E;strokeColor=none;dashed=0;verticalLabelPosition=bottom;verticalAlign=top;align=center;html=1;fontSize=12;fontStyle=0;aspect=fixed;pointerEvents=1;shape=mxgraph.aws4.corporate_data_center;labelBackgroundColor=none;" vertex="1" parent="1">
          <mxGeometry x="60" y="2" width="53" height="78" as="geometry" />
        </mxCell>
        <mxCell id="wVfG-KKMgDqxT5qiAzvM-20" style="edgeStyle=orthogonalEdgeStyle;rounded=0;orthogonalLoop=1;jettySize=auto;html=1;" edge="1" parent="1" source="wVfG-KKMgDqxT5qiAzvM-6" target="jZVaUwOg5UY3L9NAnvdq-73">
          <mxGeometry relative="1" as="geometry" />
        </mxCell>
        <mxCell id="wVfG-KKMgDqxT5qiAzvM-6" value="Github Action" style="shape=image;verticalLabelPosition=bottom;labelBackgroundColor=default;verticalAlign=top;aspect=fixed;imageAspect=0;image=data:image/png,iVBORw0KGgoAAAANSUhEUgAAAMgAAADICAMAAACahl6sAAAAnFBMVEX///8giP95uP8jiv+muc/z9fZ0tf/7/PxYpv8qjv8njP9UpP+avOM1k/9Knv/a4utDm/+QteDK3PBmrf/s7vCIsN7w8fM/mf9tsf/Z3eLT3ed9qdutv9Nfqv/L1+OpxufAzt21xdfk5+qBvP+Xrse2ws+Ior+70uySxf+dy/+0zeqvx+CZyf+lxOap0v+IwP92pNmquMfW4u+err+zUKtmAAAN90lEQVR4nO1d2WLiOgxlSylQoBQoexoCtGUo7czc//+3GxbLsi1vwRAe5jxCUHQSSZZl2ZRKFkTxerXojMoHtEePlfflwPaTO0Q8bFXLCkYP86hozXwwnbVVEmc0+8t60fq5oT7vaFmc0O6lRStpR/1tZKFxfC2ze6eSPDvQOKDRu2dnSfuONA54TopWV4tfDQ8eGWb3+VKi34QBtR7e17UM75UFEcg6k6KVJpDKsaoxrnWFKwbLmRwIGh8FaavHRHzg1f6StBt5hKnub62oBS+CfqboGu3F1/J0Qy3teMFuXrUMEvV9+16ZCHbVmlqvf53dJ5MU8aj2nDKpBFP/dW0FHRGheNWOHX80WKDYZX+HNwEaPzruKVQdmdfo9YrqOeMXcg+vofqJ/7B/LeU8kDZy8hCYvF1HOR/wPLHjnToNuW8VPgtOuC6Cf6S9VqPc7s/NMWwMv65cVUs76jD/qArx6okZ3Cgx/RwFvIIj1xso0sMf4wHvwWQ10ya7bHFlTc2oQ97UwjaEvPhgcyZP5pe6jkBXwRwMC1tG2iyLeOxqJdTBuAoNwaDFDH86LMto6hMXiBZVPdurYwqKChGLKgc9ay0HcpXh9RXWAXxaeCElosSY4bcmD4Gn0b6BxhqwFLYqplhMs47IqK3JclvsgsLcPdb4Kfu4Nm0JTMoLMqeEiDGjvr0FwKmX4udApFR/EitEjSfC6SMYPG+jtgr2vBtSksWJqDW7DjGCQ6JSUNyKmAuMpS8wkSzNl+omalluyb6b30JtFbGoMIf0+etMdPqRXMx6LdhJ1jqLUAjG0sjSl5yeff14A60JrJiLyF+ob6reE7OW9ovwgwr7+PpKU2BDckv+gjK5dCEwEesN8G6LqWozg3iQv6B9501w+g6Ow0udkd4GLIV/l7+giZReHzATPPZAlpJcVWEd2N3Xui/kaCasZ+FsoHsfRBR9tV+UoiFEYuzYdf0vboEcRLKHD5HY9RfXRx4i/JVUHX9xA+Qg8sHXRjro4wEVAW4HFk5do5aYQOJ0pGBnZ09Xqa3RRMSUXqhWwLy9mOLW4/nuSkWKJCLlW0J+WGOfFlM41WZIBBE5Axbr3Wzur2Rtt8G77jmqRKQ5SbkiJlUsD+uUCsGSqSXHGpmIlDAq9eA6cx55hnYjQNCU50MiETmFbw7lHBdmaEqycyOwsCUXDQQisdQvRJRPoYhRVEW+olEAERk8iDTIgjZ7IAX5ur4gxYm8yU5OVRvBsgpykSxxYsbfFq2eKTaU6nMdupQIL62gIkoJrR+KrTFlErqKPCxCNItr31oyJUeCjmSLKV0uLaFKeGGWlUVWUFl4JWOVhq6AjVeFkmura0APFMVenMg0qjN9awN4SEHD+gn8cQqBSxrJqXovAyddbM8AX75N0Ke4XYiuwDNEMNMaFdufzRs4hN4F1OAol0dF8PGy6CYO8JLyAj/S+tPppbQS46/33PyuqqUDIp5KSeP7dF6z7bN44ZOUQlfZj0Ahyrenb9rQPYRCMMvLZMpDwugeerJxJ6DPUjnqTK3eRy/gBFVHxs6Pdo8m8ffSZ/qBdDINfggRnqf8vrJ+7tgjrZqm8Y8hwd3YizvaqiT0NXUSy9WpMG307YS8LsQOrb7JvtJZ8355yEzKLd02vfhBrKks7oyHup2nMV7KuXs9HsobSH7fkX8wTNXtbp3KejntZroOuklttlB2LlXvJe6KePXZKnbAiHalwXK2eD6O+u3OuJdcYnt5RcnVHzPIvWLdodx/11zU8rXOXyJqUCm7gqwNLVvktc2Kfw5zqajpgvy9jBE1j0oMe2PHfr0EIUTFfbqnEaHzRgQruWYvwdCoejVR3aHJV5rjhPqRfTem867FgKJKsbLl8ITGmB4p6zPycunHTrsWA4o6oSttB290xmudo0VunuUy7gQUBYDcsLdMpqbpeyRHmM74vVarrYd92Uattw8oiiBiWYmqP+IbVBdzRLrbe/a5fUBRFBFL/z6uFVcflOCYYOWqZuMOKIoi0jSOpzhxpvc14EXhhingBBRFEjG+xSkfdrQeiHctdvSDQEBRGiJtfbrGN5CUGy/aq/BWjp7umoCiRKAZrf6VcGswbxDl1zV1KUZAUSIQkYaulP0Ko3DT8BAP4A9Ss7QVUJQEXGPQlUp4EdxajufGTT/vgKIkCMUSuggZQRCxP5sBXEtuWgwoSobYLEC6CSzVNxw6nGBXMBnOA4qSIXU9UEwWpi8PqD8tnvtsDgbDGdX7GFCUhQhRMhmwwK+Lz9HxhuyIC1jCIHZfBhRlJaIWhsEcNGV8lgKyXXUsWSJ6CwKKshMpV3+LYRim+HQ856nsOe2EwJQo1wYU5UBEnh+yoZheQUQp+bmTFdpR1SE5oCgnIhna43XSPYHZNbnyhqcWrN+GhU01nw4oSkvk0Tr5hL6gaQKxE98cHNheA/QW5bCeDETQoEvjHBSPLbXnRS988wbUwNRtwBeLcthGxImUPsyFjZODdk8XHRcahJvz1GmtEXCJKC8illKTeH12e83NeatzQFF+RNTeX/XuMKVuDTQ3dybiI8qXSCl60lI5uSWfF6HFIHGKZCfiL8qbSJbtLDXl1JNhUxVwaar3TlxyoSiH3laFSIZoXumoZE693Kn6xuQpK9Gcd6mo53xEDqh3k3ntCHaT8+g6kW+vTL1h/K7JyC3KIWvUEeEYScKk2ys313axBxWVgwgbXSEFFW6vlkIgxVX3MAUUlYMIDEowvUG3J0o6MBipk8CAonIQgRSUJzxwe+LmkGQS+VFAUTmIgGWXE/n2baKeCek0NXkKKCoHEcgm0YOZHOLJM3FzeIrk5CmgqBxEUhCISwbxnGxxhIKBsvE8sCgZDkT4CGc/UY9XOulAE1CUBBcivID+bKkC8JZUjX8GFCXBhQiaD5sbnlBLanJ9UbRgIxHHw/hQK6c2pwgoSoQTEXRoWvlZa9xvPBvXFvaDihLgRgQXFBp0uXOAk17TgaEBReUgEuHFVqIhMhJ2KxtzvICichCREtVOTbBvqR/E0pIaUFQOIqVYrLE0F71lN8vl0ng+k7p8rK2cAUXlIFKKHTvWHG4eUFQOIqWJ08H5YxdjCCgqB5FSZC+GuvbBBBSVg0gW3y1dVo5d94FF5SBSSh8MrXfGLWfXFJWDSJYEjTX3b/d8G00DispB5HC6rtp5V13k+huZgKJyEMnQXfe5BtVOZZ7/aI5QovIROSCaHkp4yyTAeVshROUncmf4R+Te8I/IveEfkXvDfYwj3Xiz2STxJf8AVvjInv7Z/lQAn9+b243sAROkwQ6RYNhu8ohip7Y6n6wcMGWdfKssjvjZ+We/bAG46pb/B5xEDHQ0Dlh9+M5HYJnOaUIWcFr3sjLwOHiL5z+awVmrDgeAhZyzb800Dth5EamzKqu9ETdkFeXTzqNS+fYyL7YuJB9jrsC1GPVojzkTIlZR+PIJX7CsZ1kX0pQHuznKgxPJPba7OM3CVDrZ7D/zM4GzzMwjScjar/A+PsVRIxVHlq2HdYEOpogTshqPn/qnetNoh1+Yxz//QQuiaWko4KIGilcregeVMMJYdmcg8OVs/casgMtML+h1aK9CF63cM0l42m1dYhBw4W/A7cbkyX/5ZVtHGmhM1I4lAZdiv514CJHN/ewl7gC0+QdcHJ9wu7KI+suvdKBwQheMu0p6acB2BXghdtPfAZPEdimAN2FTTOgGEg3MDSQDUM5hx+cXGKH92jPQ5kDiL1uplh4tzC09Ox9zSYG1e+BCXqqeV0E0WRlgbLKCUdsp3Qc79MiD0UAhTyqItjcTTG1vqc8L8b78BLzFQNzTozYimmFoRPzDNNu4iYIkwKcgIfwrdXPGLVxpDbXA0BoKijmK2vjHrczhpQbq1tOZi9ysa4OhWZe5iOtgDUHO74BIZU9PezF7V9qnM0TxJhae6WCzQTGKap9+ncRxDA/Y2Xk/PZmfsTcelgKWcpxP/KDawDGoboGa2tA+kGbozkkHi1s+3n5ATJ8vcgJ75ue0bwUO+CI9NWWLQSTP0J3Hhf/OP1h5EpH+2UYEU5wNamAfzPIZU2XTx07iQZ66TQKM0ZeI+ndWHOwKZibsDdTlmKoQUUo/ztpcQKRUf9PYl45I6U6JZFguKK9nlvNxlg1pH9OT2Z6yVU0xLWcf+XMZkSw5eFrIf44KZ8vWT1npF9Q3znMg8Bll86Di7M7VUPYIfvISOdw9WT+0RogObOeM9qvKao8Gkkn2Tn54kUDdzimHX8cMhb9s3/BLwrjBlgK1wfY1zfDKiDjXeFhA/PbSWAPzlmcVhi3Pn54POGXM/erZGlg2oSswbEKHCYajt0OUCHL2s+1YABmGYwF8ky0IEkGO7rQe1CDCeOYDU+zHSVTMLvfMGXWwHp0hwHh0xtbrlUD1wTnKmRHwMBOwrZWDKF43zXeYpYKQJ9VA9cEeUAce1zoi4IE/PFuxVtn5IHpJQ4SAkKc58ZLuX7MoTjnYCwl6KNYH6LcyZlwo0Qz2QsKeeMYTyJXhnSAeQUZ1hoAHx/F6vF5HnGR+hj3/OeBRfnh28kWazQtaD/VYsHJDwMMVhR6Ub0XR+At/bwkJ/gh5cqagaWWLO7TSnTgJC+ogJ4Q8y1Rkcmg3+2+z2fzZbeWOiCvwCHu6rENLzdV4hD3vd+9AwxSeL0TAY5Nt7VqmVfgACHkmtsW8dlf+/4CAp5THhqYtNSqHR8Bz4xM5fN2QxgEBT/KXx43KYVwJNI9ywvEPEY6u3+70L/xvheRt+3l0/Z/P711Mi/ofoOTqlipG+BgAAAAASUVORK5CYII=;" vertex="1" parent="1">
          <mxGeometry x="293" width="80" height="80" as="geometry" />
        </mxCell>
        <mxCell id="wVfG-KKMgDqxT5qiAzvM-19" value="" style="edgeStyle=orthogonalEdgeStyle;rounded=0;orthogonalLoop=1;jettySize=auto;html=1;" edge="1" parent="1" source="wVfG-KKMgDqxT5qiAzvM-6" target="wVfG-KKMgDqxT5qiAzvM-5">
          <mxGeometry relative="1" as="geometry">
            <mxPoint x="333" y="80" as="sourcePoint" />
            <mxPoint x="334" y="277" as="targetPoint" />
            <Array as="points" />
          </mxGeometry>
        </mxCell>
        <mxCell id="wVfG-KKMgDqxT5qiAzvM-56" value="" style="edgeStyle=orthogonalEdgeStyle;rounded=0;orthogonalLoop=1;jettySize=auto;html=1;" edge="1" parent="1" source="jZVaUwOg5UY3L9NAnvdq-88" target="wVfG-KKMgDqxT5qiAzvM-31">
          <mxGeometry relative="1" as="geometry">
            <mxPoint x="649" y="78" as="sourcePoint" />
            <mxPoint x="438" y="347" as="targetPoint" />
            <Array as="points" />
          </mxGeometry>
        </mxCell>
      </root>
    </mxGraphModel>
  </diagram>
</mxfile>
